<svg width="73" height="73" viewBox="0 0 73 73" fill="none" xmlns="http://www.w3.org/2000/svg">
<circle cx="36.5789" cy="36.5673" r="20" fill="#2A2B2E"/>
<path d="M33.0495 34.5084L32.4731 33.4559L31.6685 33.8965L31.8826 34.7885L33.0495 34.5084ZM46.5542 28.0804C46.7401 27.4443 46.3752 26.7779 45.7391 26.5919L35.3729 23.5618C34.7367 23.3759 34.0703 23.7408 33.8844 24.3769C33.6984 25.013 34.0634 25.6795 34.6995 25.8654L43.9139 28.5589L41.2205 37.7733C41.0345 38.4094 41.3995 39.0758 42.0356 39.2617C42.6717 39.4477 43.3381 39.0827 43.5241 38.4466L46.5542 28.0804ZM34.8142 41.8614L35.5342 42.8214L36.1651 42.3482L35.981 41.5813L34.8142 41.8614ZM33.6258 35.5609L45.9788 28.7962L44.826 26.6912L32.4731 33.4559L33.6258 35.5609ZM30.8283 46.3508L35.5342 42.8214L34.0942 40.9014L29.3883 44.4308L30.8283 46.3508ZM35.981 41.5813L34.2163 34.2284L31.8826 34.7885L33.6473 42.1414L35.981 41.5813Z" fill="#21BC72"/>
</svg>
